M48
;DRILL file {kicad (2015-04-09 BZR 5589)-product} date Wednesday, 15 April 2015 07:56:23 pm
;FORMAT={2:4/ absolute / inch / keep zeros}
FMAT,2
INCH,TZ
T1C0.025
T2C0.030
T3C0.032
T4C0.039
T5C0.040
T6C0.120
%
G90
G05
M72
T1
X059300Y-046020
X059365Y-047320
X062450Y-044710
X063640Y-042860
X064860Y-044140
T2
X057070Y-040520
X058620Y-044560
X059580Y-041160
X061120Y-045940
X061600Y-042220
X062380Y-043640
X064480Y-042600
X064820Y-044660
X065880Y-043180
X066540Y-043200
T3
X058800Y-040280
X060220Y-045900
X060900Y-043300
X062980Y-046180
X068140Y-045080
T4
X063900Y-039627
X063900Y-045533
X068120Y-041500
X068120Y-042500
X068120Y-043500
T5
X057140Y-043000
X057140Y-044000
X057140Y-045000
X057140Y-046000
X057140Y-047000
X061000Y-038000
X062000Y-038000
X064060Y-038000
X065060Y-038000
X065500Y-047000
X066060Y-038000
X066500Y-047000
T6
X068240Y-038480
X068250Y-046550
T0
M30
