G04 #@! TF.FileFunction,Copper,L1,Top,Signal*
%FSLAX46Y46*%
G04 Gerber Fmt 4.6, Leading zero omitted, Abs format (unit mm)*
G04 Created by KiCad (PCBNEW (2015-04-09 BZR 5589)-product) date Wednesday, 15 April 2015 07:54:32 pm*
%MOMM*%
G01*
G04 APERTURE LIST*
%ADD10C,0.150000*%
%ADD11R,2.032000X2.032000*%
%ADD12O,2.032000X2.032000*%
%ADD13R,2.032000X1.727200*%
%ADD14O,2.032000X1.727200*%
%ADD15R,1.727200X2.032000*%
%ADD16O,1.727200X2.032000*%
%ADD17C,1.501140*%
%ADD18O,2.499360X1.501140*%
%ADD19C,1.998980*%
%ADD20R,1.300000X1.500000*%
%ADD21R,1.500000X1.300000*%
%ADD22R,0.508000X1.143000*%
%ADD23O,1.473200X0.609600*%
%ADD24R,1.060000X0.650000*%
%ADD25C,4.064000*%
%ADD26C,1.143000*%
%ADD27C,0.889000*%
%ADD28C,0.609600*%
%ADD29C,0.254000*%
G04 APERTURE END LIST*
D10*
D11*
X157480000Y-96520000D03*
D12*
X154940000Y-96520000D03*
D11*
X166370000Y-119380000D03*
D12*
X168910000Y-119380000D03*
D13*
X145135600Y-119380000D03*
D14*
X145135600Y-116840000D03*
X145135600Y-114300000D03*
X145135600Y-111760000D03*
X145135600Y-109220000D03*
D15*
X162712400Y-96520000D03*
D16*
X165252400Y-96520000D03*
X167792400Y-96520000D03*
D17*
X154686000Y-109982000D03*
X173075600Y-114503200D03*
X152958800Y-116586000D03*
X159969200Y-117297200D03*
X149352000Y-102311200D03*
D18*
X173024800Y-107950000D03*
X173024800Y-105410000D03*
X173024800Y-110490000D03*
D19*
X162306000Y-100653200D03*
X162306000Y-115653200D03*
D20*
X161086800Y-105947200D03*
X161086800Y-103247200D03*
X149555200Y-96008200D03*
X149555200Y-98708200D03*
X146380200Y-97837000D03*
X146380200Y-100537000D03*
D21*
X162132000Y-119989600D03*
X159432000Y-119989600D03*
D20*
X156768800Y-119968000D03*
X156768800Y-117268000D03*
D22*
X160248600Y-115239800D03*
X158978600Y-115239800D03*
X157708600Y-115239800D03*
X156438600Y-115239800D03*
X156438600Y-108889800D03*
X157708600Y-108889800D03*
X158978600Y-108889800D03*
X160248600Y-108889800D03*
D23*
X152844500Y-102298500D03*
X152844500Y-103568500D03*
X152844500Y-104838500D03*
X152844500Y-106108500D03*
X158432500Y-106108500D03*
X158432500Y-104838500D03*
X158432500Y-103568500D03*
X158432500Y-102298500D03*
D24*
X166641600Y-113045200D03*
X166641600Y-113995200D03*
X166641600Y-114945200D03*
X168841600Y-114945200D03*
X168841600Y-113045200D03*
X168841600Y-113995200D03*
D22*
X151511000Y-115290600D03*
X150241000Y-115290600D03*
X148971000Y-115290600D03*
X147701000Y-115290600D03*
X147701000Y-108940600D03*
X148971000Y-108940600D03*
X150241000Y-108940600D03*
X151511000Y-108940600D03*
X169037000Y-108077000D03*
X167767000Y-108077000D03*
X166497000Y-108077000D03*
X165227000Y-108077000D03*
X165227000Y-101727000D03*
X166497000Y-101727000D03*
X167767000Y-101727000D03*
X169037000Y-101727000D03*
D25*
X173329600Y-97739200D03*
X173355000Y-118237000D03*
D26*
X158445200Y-110845600D03*
X148894800Y-113182400D03*
X144957800Y-102920800D03*
X156464000Y-107238800D03*
X164642800Y-113436400D03*
X155244800Y-116687600D03*
X163779200Y-108204000D03*
X151333200Y-104546400D03*
D27*
X150787100Y-120192800D03*
X158623000Y-113563400D03*
D26*
X169011600Y-109728000D03*
D27*
X164744400Y-112115600D03*
X161645600Y-108864400D03*
X150622000Y-116890800D03*
D26*
X167335200Y-109677200D03*
D28*
X152844500Y-102298500D02*
X152844500Y-99580700D01*
X152142200Y-96008200D02*
X149555200Y-96008200D01*
X152146000Y-96012000D02*
X152142200Y-96008200D01*
X152146000Y-98882200D02*
X152146000Y-96012000D01*
X152844500Y-99580700D02*
X152146000Y-98882200D01*
X160426400Y-110947200D02*
X158546800Y-110947200D01*
X152958800Y-111658400D02*
X152958800Y-108915200D01*
X157835600Y-111658400D02*
X152958800Y-111658400D01*
X158546800Y-110947200D02*
X157835600Y-111658400D01*
X152844500Y-102298500D02*
X149364700Y-102298500D01*
X149364700Y-102298500D02*
X149352000Y-102311200D01*
X152844500Y-102298500D02*
X154825700Y-102298500D01*
X154825700Y-102298500D02*
X154940000Y-102412800D01*
X154940000Y-102412800D02*
X154940000Y-106934000D01*
X154940000Y-106934000D02*
X152958800Y-108915200D01*
X152958800Y-108940600D02*
X151511000Y-108940600D01*
X152958800Y-108915200D02*
X152933400Y-108940600D01*
X166641600Y-114945200D02*
X166641600Y-114978000D01*
X168841600Y-111285200D02*
X168503600Y-110947200D01*
X168503600Y-110947200D02*
X160426400Y-110947200D01*
X168841600Y-113045200D02*
X168841600Y-111285200D01*
X161188400Y-111709200D02*
X160426400Y-110947200D01*
X161188400Y-111760000D02*
X161188400Y-111709200D01*
X164373600Y-114945200D02*
X161188400Y-111760000D01*
X166641600Y-114945200D02*
X164373600Y-114945200D01*
X160248600Y-111125000D02*
X160426400Y-110947200D01*
X160248600Y-115239800D02*
X160248600Y-111125000D01*
X144957800Y-102920800D02*
X144987000Y-102950000D01*
X144987000Y-102950000D02*
X146380200Y-100537000D01*
X156438600Y-107264200D02*
X156438600Y-108889800D01*
X156438600Y-107264200D02*
X156464000Y-107238800D01*
X163906200Y-108077000D02*
X163779200Y-108204000D01*
X163906200Y-108077000D02*
X165227000Y-108077000D01*
X156768800Y-117268000D02*
X155825200Y-117268000D01*
X155825200Y-117268000D02*
X155244800Y-116687600D01*
X155825200Y-117268000D02*
X155244800Y-116687600D01*
X165201600Y-113995200D02*
X164642800Y-113436400D01*
X166641600Y-113995200D02*
X165201600Y-113995200D01*
X147701000Y-114376200D02*
X148894800Y-113182400D01*
X147701000Y-115290600D02*
X147701000Y-114376200D01*
X150241000Y-114528600D02*
X148894800Y-113182400D01*
X150241000Y-115290600D02*
X150241000Y-114528600D01*
X159918400Y-102870000D02*
X160324800Y-102463600D01*
X159219900Y-103568500D02*
X159918400Y-102870000D01*
X160324800Y-102463600D02*
X160324800Y-101650800D01*
X161086800Y-102412800D02*
X161086800Y-103247200D01*
X161086800Y-102412800D02*
X160324800Y-101650800D01*
X158432500Y-103568500D02*
X159219900Y-103568500D01*
X159524700Y-104838500D02*
X159918400Y-104444800D01*
X159918400Y-104444800D02*
X159918400Y-102870000D01*
X158432500Y-104838500D02*
X159524700Y-104838500D01*
X151625300Y-104838500D02*
X151333200Y-104546400D01*
X152844500Y-104838500D02*
X151625300Y-104838500D01*
X152311100Y-103568500D02*
X151333200Y-104546400D01*
X152844500Y-103568500D02*
X152311100Y-103568500D01*
X156451300Y-104838500D02*
X156464000Y-104851200D01*
X156464000Y-104851200D02*
X156464000Y-107238800D01*
X158432500Y-104838500D02*
X156451300Y-104838500D01*
D29*
X150787100Y-120192800D02*
X149948900Y-120192800D01*
X146596100Y-116840000D02*
X145135600Y-116840000D01*
X149948900Y-120192800D02*
X146596100Y-116840000D01*
X157734000Y-113690400D02*
X158318200Y-113868200D01*
X158318200Y-113868200D02*
X158623000Y-113563400D01*
X157708600Y-113690400D02*
X157734000Y-113690400D01*
X157734000Y-113690400D02*
X150952200Y-113690400D01*
X146761200Y-115214400D02*
X145135600Y-116840000D01*
X146761200Y-113868200D02*
X146761200Y-115214400D01*
X148463000Y-112166400D02*
X146761200Y-113868200D01*
X149428200Y-112166400D02*
X148463000Y-112166400D01*
X150952200Y-113690400D02*
X149428200Y-112166400D01*
X157708600Y-115239800D02*
X157708600Y-113690400D01*
D28*
X158432500Y-101003100D02*
X160731200Y-98704400D01*
X160731200Y-98704400D02*
X165201600Y-98704400D01*
X165201600Y-98704400D02*
X165252400Y-98653600D01*
X165252400Y-98653600D02*
X165252400Y-96520000D01*
X158432500Y-102298500D02*
X158432500Y-101003100D01*
X162132000Y-119989600D02*
X165760400Y-119989600D01*
X165760400Y-119989600D02*
X166370000Y-119380000D01*
X169773600Y-113995200D02*
X170129703Y-113278970D01*
X168841600Y-113995200D02*
X169773600Y-113995200D01*
X170129703Y-116382297D02*
X169367200Y-117144800D01*
X169367200Y-117144800D02*
X166370000Y-117144800D01*
X166370000Y-117144800D02*
X166370000Y-119380000D01*
X170129703Y-113278970D02*
X170129703Y-116382297D01*
X169037000Y-108077000D02*
X169037000Y-109702600D01*
X169793197Y-110509597D02*
X169011600Y-109728000D01*
X169037000Y-109702600D02*
X169011600Y-109728000D01*
X169037000Y-109702600D02*
X169011600Y-109728000D01*
X170129703Y-113278970D02*
X170106843Y-110509597D01*
X170106843Y-110509597D02*
X169793197Y-110509597D01*
D29*
X153720800Y-121259600D02*
X146786600Y-121259600D01*
X146786600Y-121259600D02*
X144881600Y-119354600D01*
X167767000Y-106908600D02*
X167894000Y-106781600D01*
X167894000Y-106781600D02*
X170078400Y-106781600D01*
X170078400Y-106781600D02*
X170078400Y-109169200D01*
X170078400Y-109169200D02*
X171094400Y-110185200D01*
X171094400Y-110185200D02*
X170916600Y-116255800D01*
X170916600Y-116255800D02*
X170789600Y-116992400D01*
X170789600Y-116992400D02*
X170535600Y-117576600D01*
X170535600Y-117576600D02*
X170586400Y-121259600D01*
X170586400Y-121259600D02*
X153720800Y-121259600D01*
X153720800Y-121259600D02*
X153670000Y-121259600D01*
X167767000Y-108077000D02*
X167767000Y-106908600D01*
X159969200Y-117297200D02*
X159613600Y-117297200D01*
X159613600Y-117297200D02*
X158978600Y-116662200D01*
X158978600Y-116662200D02*
X158978600Y-115239800D01*
X166120564Y-112113049D02*
X164744400Y-112115600D01*
X166641600Y-113045200D02*
X166120564Y-112113049D01*
D28*
X157480000Y-96520000D02*
X162712400Y-96520000D01*
D29*
X150241000Y-108940600D02*
X150241000Y-109194600D01*
X150241000Y-109194600D02*
X145135600Y-114300000D01*
X148971000Y-108940600D02*
X148971000Y-109575600D01*
X146786600Y-111760000D02*
X145135600Y-111760000D01*
X148971000Y-109575600D02*
X146786600Y-111760000D01*
X147701000Y-108940600D02*
X145415000Y-108940600D01*
X145415000Y-108940600D02*
X145135600Y-109220000D01*
D28*
X169037000Y-101727000D02*
X167767000Y-101727000D01*
X169672000Y-101727000D02*
X173609000Y-97790000D01*
X169037000Y-101727000D02*
X169672000Y-101727000D01*
X166497000Y-101727000D02*
X165227000Y-101727000D01*
X167894000Y-96621600D02*
X167792400Y-96520000D01*
X167792400Y-98907600D02*
X167792400Y-96520000D01*
X165227000Y-101473000D02*
X167792400Y-98907600D01*
X165227000Y-101727000D02*
X165227000Y-101473000D01*
X166497000Y-103149400D02*
X167030400Y-103682800D01*
X167030400Y-103682800D02*
X175412400Y-103682800D01*
X175412400Y-103682800D02*
X175412400Y-107391200D01*
X175412400Y-107391200D02*
X174853600Y-107950000D01*
X174853600Y-107950000D02*
X173024800Y-107950000D01*
X166497000Y-101727000D02*
X166497000Y-103149400D01*
D29*
X157708600Y-108889800D02*
X157708600Y-109956600D01*
X157683200Y-109982000D02*
X154686000Y-109982000D01*
X157708600Y-109956600D02*
X157683200Y-109982000D01*
D28*
X173075600Y-114503200D02*
X173075600Y-110540800D01*
X162813999Y-104495600D02*
X162813999Y-104495600D01*
X162814000Y-102412800D02*
X162306000Y-101904800D01*
X162813999Y-104495600D02*
X162814000Y-102412800D01*
X162306000Y-101904800D02*
X162306000Y-100653200D01*
X162814000Y-107391200D02*
X162813999Y-104495600D01*
X159004000Y-107391200D02*
X162814000Y-107391200D01*
X158978600Y-107416600D02*
X159004000Y-107391200D01*
X158978600Y-108889800D02*
X158978600Y-107416600D01*
X170916600Y-108788200D02*
X170891200Y-108762800D01*
X172618400Y-110490000D02*
X170916600Y-108788200D01*
X173024800Y-110490000D02*
X172618400Y-110490000D01*
X170916600Y-105232200D02*
X170840400Y-105156000D01*
X170840400Y-105156000D02*
X162813999Y-105156000D01*
X162813999Y-105156000D02*
X162813999Y-104495600D01*
X170916600Y-108788200D02*
X170916600Y-105232200D01*
D29*
X152730200Y-115290600D02*
X153974800Y-115290600D01*
X151511000Y-115290600D02*
X152730200Y-115290600D01*
X153974800Y-115290600D02*
X156387800Y-115290600D01*
X156387800Y-115290600D02*
X156438600Y-115239800D01*
X152958800Y-115519200D02*
X152730200Y-115290600D01*
X152958800Y-116586000D02*
X152958800Y-115519200D01*
X161620200Y-108889800D02*
X160248600Y-108889800D01*
X161620200Y-108889800D02*
X161645600Y-108864400D01*
X148971000Y-115951000D02*
X148971000Y-115290600D01*
X149910800Y-116890800D02*
X150622000Y-116890800D01*
X148971000Y-115951000D02*
X149910800Y-116890800D01*
X158432500Y-106108500D02*
X160925500Y-106108500D01*
X160925500Y-106108500D02*
X161086800Y-105947200D01*
X147878800Y-98708200D02*
X147878800Y-97866200D01*
X147849600Y-97837000D02*
X146380200Y-97837000D01*
X147878800Y-97866200D02*
X147849600Y-97837000D01*
X152844500Y-106108500D02*
X150812500Y-106108500D01*
X147875000Y-98708200D02*
X147878800Y-98708200D01*
X147878800Y-98708200D02*
X149555200Y-98708200D01*
X147853400Y-98729800D02*
X147875000Y-98708200D01*
X147853400Y-103149400D02*
X147853400Y-98729800D01*
X150812500Y-106108500D02*
X147853400Y-103149400D01*
X159432000Y-119989600D02*
X156790400Y-119989600D01*
X156790400Y-119989600D02*
X156768800Y-119968000D01*
X159432000Y-119989600D02*
X159664400Y-119989600D01*
X159664400Y-119989600D02*
X161696400Y-117957600D01*
X161696400Y-117957600D02*
X163779200Y-117957600D01*
X163779200Y-117957600D02*
X165709600Y-116027200D01*
X165709600Y-116027200D02*
X168859200Y-116027200D01*
X168859200Y-116027200D02*
X168841600Y-116009600D01*
X168841600Y-116009600D02*
X168841600Y-114945200D01*
D28*
X167309800Y-109651800D02*
X166497000Y-108077000D01*
X167309800Y-109651800D02*
X167335200Y-109677200D01*
M02*
