G04 #@! TF.FileFunction,Legend,Top*
%FSLAX46Y46*%
G04 Gerber Fmt 4.6, Leading zero omitted, Abs format (unit mm)*
G04 Created by KiCad (PCBNEW (2015-04-09 BZR 5589)-product) date Wednesday, 15 April 2015 07:54:32 pm*
%MOMM*%
G01*
G04 APERTURE LIST*
%ADD10C,0.150000*%
%ADD11R,2.032000X2.032000*%
%ADD12O,2.032000X2.032000*%
%ADD13R,2.032000X1.727200*%
%ADD14O,2.032000X1.727200*%
%ADD15R,1.727200X2.032000*%
%ADD16O,1.727200X2.032000*%
%ADD17C,1.501140*%
%ADD18O,2.499360X1.501140*%
%ADD19C,1.998980*%
%ADD20R,1.300000X1.500000*%
%ADD21R,1.500000X1.300000*%
%ADD22R,0.508000X1.143000*%
%ADD23O,1.473200X0.609600*%
%ADD24R,1.060000X0.650000*%
%ADD25C,4.064000*%
G04 APERTURE END LIST*
D10*
X156210000Y-97790000D02*
X153670000Y-97790000D01*
X159030000Y-98070000D02*
X157480000Y-98070000D01*
X156210000Y-97790000D02*
X156210000Y-95250000D01*
X157480000Y-94970000D02*
X159030000Y-94970000D01*
X159030000Y-94970000D02*
X159030000Y-98070000D01*
X156210000Y-95250000D02*
X153670000Y-95250000D01*
X153670000Y-95250000D02*
X153670000Y-97790000D01*
X167640000Y-118110000D02*
X170180000Y-118110000D01*
X164820000Y-117830000D02*
X166370000Y-117830000D01*
X167640000Y-118110000D02*
X167640000Y-120650000D01*
X166370000Y-120930000D02*
X164820000Y-120930000D01*
X164820000Y-120930000D02*
X164820000Y-117830000D01*
X167640000Y-120650000D02*
X170180000Y-120650000D01*
X170180000Y-120650000D02*
X170180000Y-118110000D01*
X146685600Y-119380000D02*
X146685600Y-120930000D01*
X146685600Y-120930000D02*
X143585600Y-120930000D01*
X143585600Y-120930000D02*
X143585600Y-119380000D01*
X143865600Y-118110000D02*
X143865600Y-107950000D01*
X143865600Y-107950000D02*
X146405600Y-107950000D01*
X146405600Y-107950000D02*
X146405600Y-118110000D01*
X143865600Y-118110000D02*
X146405600Y-118110000D01*
X163982400Y-97790000D02*
X169062400Y-97790000D01*
X169062400Y-97790000D02*
X169062400Y-95250000D01*
X169062400Y-95250000D02*
X163982400Y-95250000D01*
X161162400Y-94970000D02*
X162712400Y-94970000D01*
X163982400Y-95250000D02*
X163982400Y-97790000D01*
X162712400Y-98070000D02*
X161162400Y-98070000D01*
X161162400Y-98070000D02*
X161162400Y-94970000D01*
X176072800Y-106426000D02*
X174929800Y-106426000D01*
X176072800Y-109474000D02*
X174929800Y-109474000D01*
X174929800Y-113284000D02*
X171246800Y-113284000D01*
X171246800Y-113284000D02*
X171246800Y-102616000D01*
X171246800Y-102616000D02*
X174929800Y-102616000D01*
X176072800Y-113284000D02*
X174929800Y-113284000D01*
X174929800Y-113284000D02*
X174929800Y-102616000D01*
X174929800Y-102616000D02*
X176072800Y-102616000D01*
X176072800Y-107950000D02*
X176072800Y-102616000D01*
X176072800Y-107950000D02*
X176072800Y-113284000D01*
X163576000Y-103073200D02*
X161036000Y-103073200D01*
X161036000Y-103073200D02*
X161036000Y-113233200D01*
X161036000Y-113233200D02*
X163576000Y-113233200D01*
X163576000Y-113233200D02*
X163576000Y-103073200D01*
X162306000Y-114503200D02*
X162306000Y-113233200D01*
X162306000Y-101803200D02*
X162306000Y-103073200D01*
X161961800Y-103997200D02*
X161961800Y-105197200D01*
X160211800Y-105197200D02*
X160211800Y-103997200D01*
X148680200Y-97958200D02*
X148680200Y-96758200D01*
X150430200Y-96758200D02*
X150430200Y-97958200D01*
X145505200Y-99787000D02*
X145505200Y-98587000D01*
X147255200Y-98587000D02*
X147255200Y-99787000D01*
X160182000Y-119114600D02*
X161382000Y-119114600D01*
X161382000Y-120864600D02*
X160182000Y-120864600D01*
X157643800Y-118018000D02*
X157643800Y-119218000D01*
X155893800Y-119218000D02*
X155893800Y-118018000D01*
X160883600Y-114350800D02*
X155803600Y-114350800D01*
X155803600Y-114350800D02*
X155803600Y-109778800D01*
X155803600Y-109778800D02*
X160883600Y-109778800D01*
X160883600Y-109778800D02*
X160883600Y-114350800D01*
X160883600Y-112826800D02*
X160375600Y-112826800D01*
X160375600Y-112826800D02*
X160375600Y-111556800D01*
X160375600Y-111556800D02*
X160883600Y-111556800D01*
X155003500Y-102298500D02*
G75*
G03X155003500Y-102298500I-127000J0D01*
G01*
X154241500Y-101663500D02*
X154241500Y-106743500D01*
X157543500Y-101663500D02*
X157543500Y-106743500D01*
X153733500Y-101663500D02*
X153733500Y-106743500D01*
X153733500Y-101663500D02*
X157543500Y-101663500D01*
X153733500Y-106743500D02*
X157543500Y-106743500D01*
X167441600Y-112295200D02*
G75*
G03X167441600Y-112295200I-100000J0D01*
G01*
X167991600Y-112545200D02*
X167491600Y-112545200D01*
X167991600Y-115445200D02*
X167991600Y-112545200D01*
X167491600Y-115445200D02*
X167991600Y-115445200D01*
X167491600Y-112545200D02*
X167491600Y-115445200D01*
X152146000Y-114401600D02*
X147066000Y-114401600D01*
X147066000Y-114401600D02*
X147066000Y-109829600D01*
X147066000Y-109829600D02*
X152146000Y-109829600D01*
X152146000Y-109829600D02*
X152146000Y-114401600D01*
X152146000Y-112877600D02*
X151638000Y-112877600D01*
X151638000Y-112877600D02*
X151638000Y-111607600D01*
X151638000Y-111607600D02*
X152146000Y-111607600D01*
X169672000Y-107188000D02*
X164592000Y-107188000D01*
X164592000Y-107188000D02*
X164592000Y-102616000D01*
X164592000Y-102616000D02*
X169672000Y-102616000D01*
X169672000Y-102616000D02*
X169672000Y-107188000D01*
X169672000Y-105664000D02*
X169164000Y-105664000D01*
X169164000Y-105664000D02*
X169164000Y-104394000D01*
X169164000Y-104394000D02*
X169672000Y-104394000D01*
X175615600Y-97739200D02*
G75*
G03X175615600Y-97739200I-2286000J0D01*
G01*
X175641000Y-118237000D02*
G75*
G03X175641000Y-118237000I-2286000J0D01*
G01*
X151932381Y-98210476D02*
X150932381Y-98210476D01*
X150932381Y-97829523D01*
X150980000Y-97734285D01*
X151027619Y-97686666D01*
X151122857Y-97639047D01*
X151265714Y-97639047D01*
X151360952Y-97686666D01*
X151408571Y-97734285D01*
X151456190Y-97829523D01*
X151456190Y-98210476D01*
X151932381Y-96686666D02*
X151932381Y-97258095D01*
X151932381Y-96972381D02*
X150932381Y-96972381D01*
X151075238Y-97067619D01*
X151170476Y-97162857D01*
X151218095Y-97258095D01*
X150932381Y-96067619D02*
X150932381Y-95972380D01*
X150980000Y-95877142D01*
X151027619Y-95829523D01*
X151122857Y-95781904D01*
X151313333Y-95734285D01*
X151551429Y-95734285D01*
X151741905Y-95781904D01*
X151837143Y-95829523D01*
X151884762Y-95877142D01*
X151932381Y-95972380D01*
X151932381Y-96067619D01*
X151884762Y-96162857D01*
X151837143Y-96210476D01*
X151741905Y-96258095D01*
X151551429Y-96305714D01*
X151313333Y-96305714D01*
X151122857Y-96258095D01*
X151027619Y-96210476D01*
X150980000Y-96162857D01*
X150932381Y-96067619D01*
X151932381Y-94781904D02*
X151932381Y-95353333D01*
X151932381Y-95067619D02*
X150932381Y-95067619D01*
X151075238Y-95162857D01*
X151170476Y-95258095D01*
X151218095Y-95353333D01*
X166000324Y-117292381D02*
X166000324Y-116292381D01*
X166381277Y-116292381D01*
X166476515Y-116340000D01*
X166524134Y-116387619D01*
X166571753Y-116482857D01*
X166571753Y-116625714D01*
X166524134Y-116720952D01*
X166476515Y-116768571D01*
X166381277Y-116816190D01*
X166000324Y-116816190D01*
X167524134Y-117292381D02*
X166952705Y-117292381D01*
X167238419Y-117292381D02*
X167238419Y-116292381D01*
X167143181Y-116435238D01*
X167047943Y-116530476D01*
X166952705Y-116578095D01*
X168143181Y-116292381D02*
X168238420Y-116292381D01*
X168333658Y-116340000D01*
X168381277Y-116387619D01*
X168428896Y-116482857D01*
X168476515Y-116673333D01*
X168476515Y-116911429D01*
X168428896Y-117101905D01*
X168381277Y-117197143D01*
X168333658Y-117244762D01*
X168238420Y-117292381D01*
X168143181Y-117292381D01*
X168047943Y-117244762D01*
X168000324Y-117197143D01*
X167952705Y-117101905D01*
X167905086Y-116911429D01*
X167905086Y-116673333D01*
X167952705Y-116482857D01*
X168000324Y-116387619D01*
X168047943Y-116340000D01*
X168143181Y-116292381D01*
X168857467Y-116387619D02*
X168905086Y-116340000D01*
X169000324Y-116292381D01*
X169238420Y-116292381D01*
X169333658Y-116340000D01*
X169381277Y-116387619D01*
X169428896Y-116482857D01*
X169428896Y-116578095D01*
X169381277Y-116720952D01*
X168809848Y-117292381D01*
X169428896Y-117292381D01*
X144952981Y-107138576D02*
X143952981Y-107138576D01*
X143952981Y-106757623D01*
X144000600Y-106662385D01*
X144048219Y-106614766D01*
X144143457Y-106567147D01*
X144286314Y-106567147D01*
X144381552Y-106614766D01*
X144429171Y-106662385D01*
X144476790Y-106757623D01*
X144476790Y-107138576D01*
X144952981Y-105614766D02*
X144952981Y-106186195D01*
X144952981Y-105900481D02*
X143952981Y-105900481D01*
X144095838Y-105995719D01*
X144191076Y-106090957D01*
X144238695Y-106186195D01*
X143952981Y-104995719D02*
X143952981Y-104900480D01*
X144000600Y-104805242D01*
X144048219Y-104757623D01*
X144143457Y-104710004D01*
X144333933Y-104662385D01*
X144572029Y-104662385D01*
X144762505Y-104710004D01*
X144857743Y-104757623D01*
X144905362Y-104805242D01*
X144952981Y-104900480D01*
X144952981Y-104995719D01*
X144905362Y-105090957D01*
X144857743Y-105138576D01*
X144762505Y-105186195D01*
X144572029Y-105233814D01*
X144333933Y-105233814D01*
X144143457Y-105186195D01*
X144048219Y-105138576D01*
X144000600Y-105090957D01*
X143952981Y-104995719D01*
X143952981Y-104329052D02*
X143952981Y-103710004D01*
X144333933Y-104043338D01*
X144333933Y-103900480D01*
X144381552Y-103805242D01*
X144429171Y-103757623D01*
X144524410Y-103710004D01*
X144762505Y-103710004D01*
X144857743Y-103757623D01*
X144905362Y-103805242D01*
X144952981Y-103900480D01*
X144952981Y-104186195D01*
X144905362Y-104281433D01*
X144857743Y-104329052D01*
X160751781Y-98337476D02*
X159751781Y-98337476D01*
X159751781Y-97956523D01*
X159799400Y-97861285D01*
X159847019Y-97813666D01*
X159942257Y-97766047D01*
X160085114Y-97766047D01*
X160180352Y-97813666D01*
X160227971Y-97861285D01*
X160275590Y-97956523D01*
X160275590Y-98337476D01*
X160751781Y-96813666D02*
X160751781Y-97385095D01*
X160751781Y-97099381D02*
X159751781Y-97099381D01*
X159894638Y-97194619D01*
X159989876Y-97289857D01*
X160037495Y-97385095D01*
X159751781Y-96194619D02*
X159751781Y-96099380D01*
X159799400Y-96004142D01*
X159847019Y-95956523D01*
X159942257Y-95908904D01*
X160132733Y-95861285D01*
X160370829Y-95861285D01*
X160561305Y-95908904D01*
X160656543Y-95956523D01*
X160704162Y-96004142D01*
X160751781Y-96099380D01*
X160751781Y-96194619D01*
X160704162Y-96289857D01*
X160656543Y-96337476D01*
X160561305Y-96385095D01*
X160370829Y-96432714D01*
X160132733Y-96432714D01*
X159942257Y-96385095D01*
X159847019Y-96337476D01*
X159799400Y-96289857D01*
X159751781Y-96194619D01*
X159751781Y-95004142D02*
X159751781Y-95194619D01*
X159799400Y-95289857D01*
X159847019Y-95337476D01*
X159989876Y-95432714D01*
X160180352Y-95480333D01*
X160561305Y-95480333D01*
X160656543Y-95432714D01*
X160704162Y-95385095D01*
X160751781Y-95289857D01*
X160751781Y-95099380D01*
X160704162Y-95004142D01*
X160656543Y-94956523D01*
X160561305Y-94908904D01*
X160323210Y-94908904D01*
X160227971Y-94956523D01*
X160180352Y-95004142D01*
X160132733Y-95099380D01*
X160132733Y-95289857D01*
X160180352Y-95385095D01*
X160227971Y-95432714D01*
X160323210Y-95480333D01*
X153238343Y-108529381D02*
X153238343Y-107529381D01*
X153476438Y-107529381D01*
X153619296Y-107577000D01*
X153714534Y-107672238D01*
X153762153Y-107767476D01*
X153809772Y-107957952D01*
X153809772Y-108100810D01*
X153762153Y-108291286D01*
X153714534Y-108386524D01*
X153619296Y-108481762D01*
X153476438Y-108529381D01*
X153238343Y-108529381D01*
X154095486Y-107529381D02*
X154428819Y-108529381D01*
X154762153Y-107529381D01*
X155095486Y-108529381D02*
X155095486Y-107529381D01*
X155095486Y-107910333D02*
X155190724Y-107862714D01*
X155381201Y-107862714D01*
X155476439Y-107910333D01*
X155524058Y-107957952D01*
X155571677Y-108053190D01*
X155571677Y-108338905D01*
X155524058Y-108434143D01*
X155476439Y-108481762D01*
X155381201Y-108529381D01*
X155190724Y-108529381D01*
X155095486Y-108481762D01*
X153309581Y-115293638D02*
X152309581Y-115293638D01*
X152309581Y-115055543D01*
X152357200Y-114912685D01*
X152452438Y-114817447D01*
X152547676Y-114769828D01*
X152738152Y-114722209D01*
X152881010Y-114722209D01*
X153071486Y-114769828D01*
X153166724Y-114817447D01*
X153261962Y-114912685D01*
X153309581Y-115055543D01*
X153309581Y-115293638D01*
X152642914Y-114388876D02*
X153309581Y-114150781D01*
X152642914Y-113912685D01*
X153309581Y-113103161D02*
X152785771Y-113103161D01*
X152690533Y-113150780D01*
X152642914Y-113246018D01*
X152642914Y-113436495D01*
X152690533Y-113531733D01*
X153261962Y-113103161D02*
X153309581Y-113198399D01*
X153309581Y-113436495D01*
X153261962Y-113531733D01*
X153166724Y-113579352D01*
X153071486Y-113579352D01*
X152976248Y-113531733D01*
X152928629Y-113436495D01*
X152928629Y-113198399D01*
X152881010Y-113103161D01*
X149164848Y-100106219D02*
X149212467Y-100058600D01*
X149307705Y-100010981D01*
X149545801Y-100010981D01*
X149641039Y-100058600D01*
X149688658Y-100106219D01*
X149736277Y-100201457D01*
X149736277Y-100296695D01*
X149688658Y-100439552D01*
X149117229Y-101010981D01*
X149736277Y-101010981D01*
X150164848Y-100915743D02*
X150212467Y-100963362D01*
X150164848Y-101010981D01*
X150117229Y-100963362D01*
X150164848Y-100915743D01*
X150164848Y-101010981D01*
X150545800Y-100010981D02*
X151212467Y-100010981D01*
X150783895Y-101010981D01*
X151498181Y-100344314D02*
X151736276Y-101010981D01*
X151974372Y-100344314D01*
X171083219Y-107118019D02*
X171035600Y-107213257D01*
X170940362Y-107308495D01*
X170797505Y-107451352D01*
X170749886Y-107546591D01*
X170749886Y-107641829D01*
X170987981Y-107594210D02*
X170940362Y-107689448D01*
X170845124Y-107784686D01*
X170654648Y-107832305D01*
X170321314Y-107832305D01*
X170130838Y-107784686D01*
X170035600Y-107689448D01*
X169987981Y-107594210D01*
X169987981Y-107403733D01*
X170035600Y-107308495D01*
X170130838Y-107213257D01*
X170321314Y-107165638D01*
X170654648Y-107165638D01*
X170845124Y-107213257D01*
X170940362Y-107308495D01*
X170987981Y-107403733D01*
X170987981Y-107594210D01*
X170083219Y-106784686D02*
X170035600Y-106737067D01*
X169987981Y-106641829D01*
X169987981Y-106403733D01*
X170035600Y-106308495D01*
X170083219Y-106260876D01*
X170178457Y-106213257D01*
X170273695Y-106213257D01*
X170416552Y-106260876D01*
X170987981Y-106832305D01*
X170987981Y-106213257D01*
X169987981Y-105594210D02*
X169987981Y-105498971D01*
X170035600Y-105403733D01*
X170083219Y-105356114D01*
X170178457Y-105308495D01*
X170368933Y-105260876D01*
X170607029Y-105260876D01*
X170797505Y-105308495D01*
X170892743Y-105356114D01*
X170940362Y-105403733D01*
X170987981Y-105498971D01*
X170987981Y-105594210D01*
X170940362Y-105689448D01*
X170892743Y-105737067D01*
X170797505Y-105784686D01*
X170607029Y-105832305D01*
X170368933Y-105832305D01*
X170178457Y-105784686D01*
X170083219Y-105737067D01*
X170035600Y-105689448D01*
X169987981Y-105594210D01*
X170987981Y-104308495D02*
X170987981Y-104879924D01*
X170987981Y-104594210D02*
X169987981Y-104594210D01*
X170130838Y-104689448D01*
X170226076Y-104784686D01*
X170273695Y-104879924D01*
X174699562Y-109632714D02*
X174747181Y-109489857D01*
X174747181Y-109251761D01*
X174699562Y-109156523D01*
X174651943Y-109108904D01*
X174556705Y-109061285D01*
X174461467Y-109061285D01*
X174366229Y-109108904D01*
X174318610Y-109156523D01*
X174270990Y-109251761D01*
X174223371Y-109442238D01*
X174175752Y-109537476D01*
X174128133Y-109585095D01*
X174032895Y-109632714D01*
X173937657Y-109632714D01*
X173842419Y-109585095D01*
X173794800Y-109537476D01*
X173747181Y-109442238D01*
X173747181Y-109204142D01*
X173794800Y-109061285D01*
X174747181Y-107068905D02*
X173747181Y-107068905D01*
X173747181Y-106830810D01*
X173794800Y-106687952D01*
X173890038Y-106592714D01*
X173985276Y-106545095D01*
X174175752Y-106497476D01*
X174318610Y-106497476D01*
X174509086Y-106545095D01*
X174604324Y-106592714D01*
X174699562Y-106687952D01*
X174747181Y-106830810D01*
X174747181Y-107068905D01*
X173794800Y-103878095D02*
X173747181Y-103973333D01*
X173747181Y-104116190D01*
X173794800Y-104259048D01*
X173890038Y-104354286D01*
X173985276Y-104401905D01*
X174175752Y-104449524D01*
X174318610Y-104449524D01*
X174509086Y-104401905D01*
X174604324Y-104354286D01*
X174699562Y-104259048D01*
X174747181Y-104116190D01*
X174747181Y-104020952D01*
X174699562Y-103878095D01*
X174651943Y-103830476D01*
X174318610Y-103830476D01*
X174318610Y-104020952D01*
X158596153Y-99867981D02*
X158262819Y-99391790D01*
X158024724Y-99867981D02*
X158024724Y-98867981D01*
X158405677Y-98867981D01*
X158500915Y-98915600D01*
X158548534Y-98963219D01*
X158596153Y-99058457D01*
X158596153Y-99201314D01*
X158548534Y-99296552D01*
X158500915Y-99344171D01*
X158405677Y-99391790D01*
X158024724Y-99391790D01*
X159453296Y-99201314D02*
X159453296Y-99867981D01*
X159215200Y-98820362D02*
X158977105Y-99534648D01*
X159596153Y-99534648D01*
X160167581Y-98867981D02*
X160262820Y-98867981D01*
X160358058Y-98915600D01*
X160405677Y-98963219D01*
X160453296Y-99058457D01*
X160500915Y-99248933D01*
X160500915Y-99487029D01*
X160453296Y-99677505D01*
X160405677Y-99772743D01*
X160358058Y-99820362D01*
X160262820Y-99867981D01*
X160167581Y-99867981D01*
X160072343Y-99820362D01*
X160024724Y-99772743D01*
X159977105Y-99677505D01*
X159929486Y-99487029D01*
X159929486Y-99248933D01*
X159977105Y-99058457D01*
X160024724Y-98963219D01*
X160072343Y-98915600D01*
X160167581Y-98867981D01*
X161453296Y-99867981D02*
X160881867Y-99867981D01*
X161167581Y-99867981D02*
X161167581Y-98867981D01*
X161072343Y-99010838D01*
X160977105Y-99106076D01*
X160881867Y-99153695D01*
X145172253Y-95956381D02*
X144838919Y-95480190D01*
X144600824Y-95956381D02*
X144600824Y-94956381D01*
X144981777Y-94956381D01*
X145077015Y-95004000D01*
X145124634Y-95051619D01*
X145172253Y-95146857D01*
X145172253Y-95289714D01*
X145124634Y-95384952D01*
X145077015Y-95432571D01*
X144981777Y-95480190D01*
X144600824Y-95480190D01*
X146029396Y-95289714D02*
X146029396Y-95956381D01*
X145791300Y-94908762D02*
X145553205Y-95623048D01*
X146172253Y-95623048D01*
X146743681Y-94956381D02*
X146838920Y-94956381D01*
X146934158Y-95004000D01*
X146981777Y-95051619D01*
X147029396Y-95146857D01*
X147077015Y-95337333D01*
X147077015Y-95575429D01*
X147029396Y-95765905D01*
X146981777Y-95861143D01*
X146934158Y-95908762D01*
X146838920Y-95956381D01*
X146743681Y-95956381D01*
X146648443Y-95908762D01*
X146600824Y-95861143D01*
X146553205Y-95765905D01*
X146505586Y-95575429D01*
X146505586Y-95337333D01*
X146553205Y-95146857D01*
X146600824Y-95051619D01*
X146648443Y-95004000D01*
X146743681Y-94956381D01*
X147457967Y-95051619D02*
X147505586Y-95004000D01*
X147600824Y-94956381D01*
X147838920Y-94956381D01*
X147934158Y-95004000D01*
X147981777Y-95051619D01*
X148029396Y-95146857D01*
X148029396Y-95242095D01*
X147981777Y-95384952D01*
X147410348Y-95956381D01*
X148029396Y-95956381D01*
X144952981Y-99696447D02*
X144476790Y-100029781D01*
X144952981Y-100267876D02*
X143952981Y-100267876D01*
X143952981Y-99886923D01*
X144000600Y-99791685D01*
X144048219Y-99744066D01*
X144143457Y-99696447D01*
X144286314Y-99696447D01*
X144381552Y-99744066D01*
X144429171Y-99791685D01*
X144476790Y-99886923D01*
X144476790Y-100267876D01*
X144286314Y-98839304D02*
X144952981Y-98839304D01*
X143905362Y-99077400D02*
X144619648Y-99315495D01*
X144619648Y-98696447D01*
X143952981Y-98125019D02*
X143952981Y-98029780D01*
X144000600Y-97934542D01*
X144048219Y-97886923D01*
X144143457Y-97839304D01*
X144333933Y-97791685D01*
X144572029Y-97791685D01*
X144762505Y-97839304D01*
X144857743Y-97886923D01*
X144905362Y-97934542D01*
X144952981Y-98029780D01*
X144952981Y-98125019D01*
X144905362Y-98220257D01*
X144857743Y-98267876D01*
X144762505Y-98315495D01*
X144572029Y-98363114D01*
X144333933Y-98363114D01*
X144143457Y-98315495D01*
X144048219Y-98267876D01*
X144000600Y-98220257D01*
X143952981Y-98125019D01*
X143952981Y-97458352D02*
X143952981Y-96839304D01*
X144333933Y-97172638D01*
X144333933Y-97029780D01*
X144381552Y-96934542D01*
X144429171Y-96886923D01*
X144524410Y-96839304D01*
X144762505Y-96839304D01*
X144857743Y-96886923D01*
X144905362Y-96934542D01*
X144952981Y-97029780D01*
X144952981Y-97315495D01*
X144905362Y-97410733D01*
X144857743Y-97458352D01*
X161720353Y-118130581D02*
X161387019Y-117654390D01*
X161148924Y-118130581D02*
X161148924Y-117130581D01*
X161529877Y-117130581D01*
X161625115Y-117178200D01*
X161672734Y-117225819D01*
X161720353Y-117321057D01*
X161720353Y-117463914D01*
X161672734Y-117559152D01*
X161625115Y-117606771D01*
X161529877Y-117654390D01*
X161148924Y-117654390D01*
X162577496Y-117463914D02*
X162577496Y-118130581D01*
X162339400Y-117082962D02*
X162101305Y-117797248D01*
X162720353Y-117797248D01*
X163291781Y-117130581D02*
X163387020Y-117130581D01*
X163482258Y-117178200D01*
X163529877Y-117225819D01*
X163577496Y-117321057D01*
X163625115Y-117511533D01*
X163625115Y-117749629D01*
X163577496Y-117940105D01*
X163529877Y-118035343D01*
X163482258Y-118082962D01*
X163387020Y-118130581D01*
X163291781Y-118130581D01*
X163196543Y-118082962D01*
X163148924Y-118035343D01*
X163101305Y-117940105D01*
X163053686Y-117749629D01*
X163053686Y-117511533D01*
X163101305Y-117321057D01*
X163148924Y-117225819D01*
X163196543Y-117178200D01*
X163291781Y-117130581D01*
X164482258Y-117463914D02*
X164482258Y-118130581D01*
X164244162Y-117082962D02*
X164006067Y-117797248D01*
X164625115Y-117797248D01*
X152209714Y-111440981D02*
X152209714Y-112250505D01*
X152257333Y-112345743D01*
X152304952Y-112393362D01*
X152400190Y-112440981D01*
X152590667Y-112440981D01*
X152685905Y-112393362D01*
X152733524Y-112345743D01*
X152781143Y-112250505D01*
X152781143Y-111440981D01*
X153209714Y-111536219D02*
X153257333Y-111488600D01*
X153352571Y-111440981D01*
X153590667Y-111440981D01*
X153685905Y-111488600D01*
X153733524Y-111536219D01*
X153781143Y-111631457D01*
X153781143Y-111726695D01*
X153733524Y-111869552D01*
X153162095Y-112440981D01*
X153781143Y-112440981D01*
X154400190Y-111440981D02*
X154495429Y-111440981D01*
X154590667Y-111488600D01*
X154638286Y-111536219D01*
X154685905Y-111631457D01*
X154733524Y-111821933D01*
X154733524Y-112060029D01*
X154685905Y-112250505D01*
X154638286Y-112345743D01*
X154590667Y-112393362D01*
X154495429Y-112440981D01*
X154400190Y-112440981D01*
X154304952Y-112393362D01*
X154257333Y-112345743D01*
X154209714Y-112250505D01*
X154162095Y-112060029D01*
X154162095Y-111821933D01*
X154209714Y-111631457D01*
X154257333Y-111536219D01*
X154304952Y-111488600D01*
X154400190Y-111440981D01*
X155685905Y-112440981D02*
X155114476Y-112440981D01*
X155400190Y-112440981D02*
X155400190Y-111440981D01*
X155304952Y-111583838D01*
X155209714Y-111679076D01*
X155114476Y-111726695D01*
X153784514Y-99960181D02*
X153784514Y-100769705D01*
X153832133Y-100864943D01*
X153879752Y-100912562D01*
X153974990Y-100960181D01*
X154165467Y-100960181D01*
X154260705Y-100912562D01*
X154308324Y-100864943D01*
X154355943Y-100769705D01*
X154355943Y-99960181D01*
X155260705Y-100293514D02*
X155260705Y-100960181D01*
X155022609Y-99912562D02*
X154784514Y-100626848D01*
X155403562Y-100626848D01*
X155974990Y-99960181D02*
X156070229Y-99960181D01*
X156165467Y-100007800D01*
X156213086Y-100055419D01*
X156260705Y-100150657D01*
X156308324Y-100341133D01*
X156308324Y-100579229D01*
X156260705Y-100769705D01*
X156213086Y-100864943D01*
X156165467Y-100912562D01*
X156070229Y-100960181D01*
X155974990Y-100960181D01*
X155879752Y-100912562D01*
X155832133Y-100864943D01*
X155784514Y-100769705D01*
X155736895Y-100579229D01*
X155736895Y-100341133D01*
X155784514Y-100150657D01*
X155832133Y-100055419D01*
X155879752Y-100007800D01*
X155974990Y-99960181D01*
X157260705Y-100960181D02*
X156689276Y-100960181D01*
X156974990Y-100960181D02*
X156974990Y-99960181D01*
X156879752Y-100103038D01*
X156784514Y-100198276D01*
X156689276Y-100245895D01*
X170864281Y-115137986D02*
X171673805Y-115137986D01*
X171769043Y-115090367D01*
X171816662Y-115042748D01*
X171864281Y-114947510D01*
X171864281Y-114757033D01*
X171816662Y-114661795D01*
X171769043Y-114614176D01*
X171673805Y-114566557D01*
X170864281Y-114566557D01*
X171197614Y-113661795D02*
X171864281Y-113661795D01*
X170816662Y-113899891D02*
X171530948Y-114137986D01*
X171530948Y-113518938D01*
X170864281Y-112947510D02*
X170864281Y-112852271D01*
X170911900Y-112757033D01*
X170959519Y-112709414D01*
X171054757Y-112661795D01*
X171245233Y-112614176D01*
X171483329Y-112614176D01*
X171673805Y-112661795D01*
X171769043Y-112709414D01*
X171816662Y-112757033D01*
X171864281Y-112852271D01*
X171864281Y-112947510D01*
X171816662Y-113042748D01*
X171769043Y-113090367D01*
X171673805Y-113137986D01*
X171483329Y-113185605D01*
X171245233Y-113185605D01*
X171054757Y-113137986D01*
X170959519Y-113090367D01*
X170911900Y-113042748D01*
X170864281Y-112947510D01*
X170959519Y-112233224D02*
X170911900Y-112185605D01*
X170864281Y-112090367D01*
X170864281Y-111852271D01*
X170911900Y-111757033D01*
X170959519Y-111709414D01*
X171054757Y-111661795D01*
X171149995Y-111661795D01*
X171292852Y-111709414D01*
X171864281Y-112280843D01*
X171864281Y-111661795D01*
X147650414Y-105954581D02*
X147650414Y-106764105D01*
X147698033Y-106859343D01*
X147745652Y-106906962D01*
X147840890Y-106954581D01*
X148031367Y-106954581D01*
X148126605Y-106906962D01*
X148174224Y-106859343D01*
X148221843Y-106764105D01*
X148221843Y-105954581D01*
X149174224Y-105954581D02*
X148698033Y-105954581D01*
X148650414Y-106430771D01*
X148698033Y-106383152D01*
X148793271Y-106335533D01*
X149031367Y-106335533D01*
X149126605Y-106383152D01*
X149174224Y-106430771D01*
X149221843Y-106526010D01*
X149221843Y-106764105D01*
X149174224Y-106859343D01*
X149126605Y-106906962D01*
X149031367Y-106954581D01*
X148793271Y-106954581D01*
X148698033Y-106906962D01*
X148650414Y-106859343D01*
X149840890Y-105954581D02*
X149936129Y-105954581D01*
X150031367Y-106002200D01*
X150078986Y-106049819D01*
X150126605Y-106145057D01*
X150174224Y-106335533D01*
X150174224Y-106573629D01*
X150126605Y-106764105D01*
X150078986Y-106859343D01*
X150031367Y-106906962D01*
X149936129Y-106954581D01*
X149840890Y-106954581D01*
X149745652Y-106906962D01*
X149698033Y-106859343D01*
X149650414Y-106764105D01*
X149602795Y-106573629D01*
X149602795Y-106335533D01*
X149650414Y-106145057D01*
X149698033Y-106049819D01*
X149745652Y-106002200D01*
X149840890Y-105954581D01*
X151126605Y-106954581D02*
X150555176Y-106954581D01*
X150840890Y-106954581D02*
X150840890Y-105954581D01*
X150745652Y-106097438D01*
X150650414Y-106192676D01*
X150555176Y-106240295D01*
X165417714Y-99354381D02*
X165417714Y-100163905D01*
X165465333Y-100259143D01*
X165512952Y-100306762D01*
X165608190Y-100354381D01*
X165798667Y-100354381D01*
X165893905Y-100306762D01*
X165941524Y-100259143D01*
X165989143Y-100163905D01*
X165989143Y-99354381D01*
X166893905Y-99354381D02*
X166703428Y-99354381D01*
X166608190Y-99402000D01*
X166560571Y-99449619D01*
X166465333Y-99592476D01*
X166417714Y-99782952D01*
X166417714Y-100163905D01*
X166465333Y-100259143D01*
X166512952Y-100306762D01*
X166608190Y-100354381D01*
X166798667Y-100354381D01*
X166893905Y-100306762D01*
X166941524Y-100259143D01*
X166989143Y-100163905D01*
X166989143Y-99925810D01*
X166941524Y-99830571D01*
X166893905Y-99782952D01*
X166798667Y-99735333D01*
X166608190Y-99735333D01*
X166512952Y-99782952D01*
X166465333Y-99830571D01*
X166417714Y-99925810D01*
X167608190Y-99354381D02*
X167703429Y-99354381D01*
X167798667Y-99402000D01*
X167846286Y-99449619D01*
X167893905Y-99544857D01*
X167941524Y-99735333D01*
X167941524Y-99973429D01*
X167893905Y-100163905D01*
X167846286Y-100259143D01*
X167798667Y-100306762D01*
X167703429Y-100354381D01*
X167608190Y-100354381D01*
X167512952Y-100306762D01*
X167465333Y-100259143D01*
X167417714Y-100163905D01*
X167370095Y-99973429D01*
X167370095Y-99735333D01*
X167417714Y-99544857D01*
X167465333Y-99449619D01*
X167512952Y-99402000D01*
X167608190Y-99354381D01*
X168893905Y-100354381D02*
X168322476Y-100354381D01*
X168608190Y-100354381D02*
X168608190Y-99354381D01*
X168512952Y-99497238D01*
X168417714Y-99592476D01*
X168322476Y-99640095D01*
%LPC*%
D11*
X157480000Y-96520000D03*
D12*
X154940000Y-96520000D03*
D11*
X166370000Y-119380000D03*
D12*
X168910000Y-119380000D03*
D13*
X145135600Y-119380000D03*
D14*
X145135600Y-116840000D03*
X145135600Y-114300000D03*
X145135600Y-111760000D03*
X145135600Y-109220000D03*
D15*
X162712400Y-96520000D03*
D16*
X165252400Y-96520000D03*
X167792400Y-96520000D03*
D17*
X154686000Y-109982000D03*
X173075600Y-114503200D03*
X152958800Y-116586000D03*
X159969200Y-117297200D03*
X149352000Y-102311200D03*
D18*
X173024800Y-107950000D03*
X173024800Y-105410000D03*
X173024800Y-110490000D03*
D19*
X162306000Y-100653200D03*
X162306000Y-115653200D03*
D20*
X161086800Y-105947200D03*
X161086800Y-103247200D03*
X149555200Y-96008200D03*
X149555200Y-98708200D03*
X146380200Y-97837000D03*
X146380200Y-100537000D03*
D21*
X162132000Y-119989600D03*
X159432000Y-119989600D03*
D20*
X156768800Y-119968000D03*
X156768800Y-117268000D03*
D22*
X160248600Y-115239800D03*
X158978600Y-115239800D03*
X157708600Y-115239800D03*
X156438600Y-115239800D03*
X156438600Y-108889800D03*
X157708600Y-108889800D03*
X158978600Y-108889800D03*
X160248600Y-108889800D03*
D23*
X152844500Y-102298500D03*
X152844500Y-103568500D03*
X152844500Y-104838500D03*
X152844500Y-106108500D03*
X158432500Y-106108500D03*
X158432500Y-104838500D03*
X158432500Y-103568500D03*
X158432500Y-102298500D03*
D24*
X166641600Y-113045200D03*
X166641600Y-113995200D03*
X166641600Y-114945200D03*
X168841600Y-114945200D03*
X168841600Y-113045200D03*
X168841600Y-113995200D03*
D22*
X151511000Y-115290600D03*
X150241000Y-115290600D03*
X148971000Y-115290600D03*
X147701000Y-115290600D03*
X147701000Y-108940600D03*
X148971000Y-108940600D03*
X150241000Y-108940600D03*
X151511000Y-108940600D03*
X169037000Y-108077000D03*
X167767000Y-108077000D03*
X166497000Y-108077000D03*
X165227000Y-108077000D03*
X165227000Y-101727000D03*
X166497000Y-101727000D03*
X167767000Y-101727000D03*
X169037000Y-101727000D03*
D25*
X173329600Y-97739200D03*
X173355000Y-118237000D03*
M02*
