G04 #@! TF.FileFunction,Soldermask,Top*
%FSLAX46Y46*%
G04 Gerber Fmt 4.6, Leading zero omitted, Abs format (unit mm)*
G04 Created by KiCad (PCBNEW (2015-04-09 BZR 5589)-product) date Wednesday, 15 April 2015 07:54:32 pm*
%MOMM*%
G01*
G04 APERTURE LIST*
%ADD10C,0.150000*%
%ADD11R,2.032000X2.032000*%
%ADD12O,2.032000X2.032000*%
%ADD13R,2.032000X1.727200*%
%ADD14O,2.032000X1.727200*%
%ADD15R,1.727200X2.032000*%
%ADD16O,1.727200X2.032000*%
%ADD17C,1.501140*%
%ADD18O,2.499360X1.501140*%
%ADD19C,1.998980*%
%ADD20R,1.300000X1.500000*%
%ADD21R,1.500000X1.300000*%
%ADD22R,0.508000X1.143000*%
%ADD23O,1.473200X0.609600*%
%ADD24R,1.060000X0.650000*%
%ADD25C,4.064000*%
G04 APERTURE END LIST*
D10*
D11*
X157480000Y-96520000D03*
D12*
X154940000Y-96520000D03*
D11*
X166370000Y-119380000D03*
D12*
X168910000Y-119380000D03*
D13*
X145135600Y-119380000D03*
D14*
X145135600Y-116840000D03*
X145135600Y-114300000D03*
X145135600Y-111760000D03*
X145135600Y-109220000D03*
D15*
X162712400Y-96520000D03*
D16*
X165252400Y-96520000D03*
X167792400Y-96520000D03*
D17*
X154686000Y-109982000D03*
X173075600Y-114503200D03*
X152958800Y-116586000D03*
X159969200Y-117297200D03*
X149352000Y-102311200D03*
D18*
X173024800Y-107950000D03*
X173024800Y-105410000D03*
X173024800Y-110490000D03*
D19*
X162306000Y-100653200D03*
X162306000Y-115653200D03*
D20*
X161086800Y-105947200D03*
X161086800Y-103247200D03*
X149555200Y-96008200D03*
X149555200Y-98708200D03*
X146380200Y-97837000D03*
X146380200Y-100537000D03*
D21*
X162132000Y-119989600D03*
X159432000Y-119989600D03*
D20*
X156768800Y-119968000D03*
X156768800Y-117268000D03*
D22*
X160248600Y-115239800D03*
X158978600Y-115239800D03*
X157708600Y-115239800D03*
X156438600Y-115239800D03*
X156438600Y-108889800D03*
X157708600Y-108889800D03*
X158978600Y-108889800D03*
X160248600Y-108889800D03*
D23*
X152844500Y-102298500D03*
X152844500Y-103568500D03*
X152844500Y-104838500D03*
X152844500Y-106108500D03*
X158432500Y-106108500D03*
X158432500Y-104838500D03*
X158432500Y-103568500D03*
X158432500Y-102298500D03*
D24*
X166641600Y-113045200D03*
X166641600Y-113995200D03*
X166641600Y-114945200D03*
X168841600Y-114945200D03*
X168841600Y-113045200D03*
X168841600Y-113995200D03*
D22*
X151511000Y-115290600D03*
X150241000Y-115290600D03*
X148971000Y-115290600D03*
X147701000Y-115290600D03*
X147701000Y-108940600D03*
X148971000Y-108940600D03*
X150241000Y-108940600D03*
X151511000Y-108940600D03*
X169037000Y-108077000D03*
X167767000Y-108077000D03*
X166497000Y-108077000D03*
X165227000Y-108077000D03*
X165227000Y-101727000D03*
X166497000Y-101727000D03*
X167767000Y-101727000D03*
X169037000Y-101727000D03*
D25*
X173329600Y-97739200D03*
X173355000Y-118237000D03*
M02*
